<svg width="1920" height="950" viewBox="0 0 1920 950" fill="none" xmlns="http://www.w3.org/2000/svg">
<g clip-path="url(#clip0_1_19)">
<rect width="1920" height="950" fill="white"/>
<g filter="url(#filter0_i_1_19)">
<path fill-rule="evenodd" clip-rule="evenodd" d="M43.4328 410.107C147.67 380.657 62.1031 303.502 98.4759 255.414C142.66 197 491.186 123.286 468.434 26.699C399.956 -127.104 194.156 -34.0396 142.454 -89.585C92.3313 -143.434 4.42358 -227.864 -63.8169 -255.388C-129.136 -281.733 -269.011 -281.089 -290.833 -154.314C-304.75 -58.9551 -261.367 -35.6642 -292.329 13.0606C-325.114 64.6532 -376.659 107.424 -381.099 168.374C-385.91 234.428 -366.845 307.689 -316.965 351.255C-268.416 393.657 -195.189 375.935 -131.554 386.326C-72.0016 396.051 -11.5614 434.965 43.4328 410.107Z" fill="#162C4E"/>
</g>
<g filter="url(#filter1_i_1_19)">
<path fill-rule="evenodd" clip-rule="evenodd" d="M2341.6 68.3349C2380.06 -32.9233 2267.06 -10.1912 2250.09 -68.0588C2229.49 -138.353 2378 -462.166 2286.82 -501.457C2122.41 -538.128 2074.52 -317.399 1999.07 -308.983C1925.92 -300.824 1805.67 -280.547 1742.88 -242.151C1682.77 -205.398 1599.91 -92.6886 1688.78 0.3896C1757.11 68.3963 1801.69 47.4384 1822.39 101.341C1844.31 158.416 1847.95 225.298 1894.29 265.188C1944.5 308.417 2014.74 336.769 2079.48 322.676C2142.49 308.959 2171.9 239.593 2218.18 194.684C2261.49 152.657 2328.79 127.312 2341.6 68.3349Z" fill="#162C4E"/>
</g>
</g>
<defs>
<filter id="filter0_i_1_19" x="-381.819" y="-269.155" width="851.319" height="691.427" filterUnits="userSpaceOnUse" color-interpolation-filters="sRGB">
<feFlood flood-opacity="0" result="BackgroundImageFix"/>
<feBlend mode="normal" in="SourceGraphic" in2="BackgroundImageFix" result="shape"/>
<feColorMatrix in="SourceAlpha" type="matrix" values="0 0 0 0 0 0 0 0 0 0 0 0 0 0 0 0 0 0 127 0" result="hardAlpha"/>
<feOffset dy="4"/>
<feGaussianBlur stdDeviation="15"/>
<feComposite in2="hardAlpha" operator="arithmetic" k2="-1" k3="1"/>
<feColorMatrix type="matrix" values="0 0 0 0 0 0 0 0 0 0 0 0 0 0 0 0 0 0 1 0"/>
<feBlend mode="normal" in2="shape" result="effect1_innerShadow_1_19"/>
</filter>
<filter id="filter1_i_1_19" x="1649.84" y="-505.564" width="699.692" height="835.887" filterUnits="userSpaceOnUse" color-interpolation-filters="sRGB">
<feFlood flood-opacity="0" result="BackgroundImageFix"/>
<feBlend mode="normal" in="SourceGraphic" in2="BackgroundImageFix" result="shape"/>
<feColorMatrix in="SourceAlpha" type="matrix" values="0 0 0 0 0 0 0 0 0 0 0 0 0 0 0 0 0 0 127 0" result="hardAlpha"/>
<feOffset dy="4"/>
<feGaussianBlur stdDeviation="15"/>
<feComposite in2="hardAlpha" operator="arithmetic" k2="-1" k3="1"/>
<feColorMatrix type="matrix" values="0 0 0 0 0 0 0 0 0 0 0 0 0 0 0 0 0 0 1 0"/>
<feBlend mode="normal" in2="shape" result="effect1_innerShadow_1_19"/>
</filter>
<clipPath id="clip0_1_19">
<rect width="1920" height="950" fill="white"/>
</clipPath>
</defs>
</svg>
