<svg width="140" height="62" viewBox="0 0 140 62" fill="none" xmlns="http://www.w3.org/2000/svg">
<g filter="url(#filter0_d_1_78)">
<path d="M4 54C10.678 42.5627 18.415 41.5565 33.0947 41.5565C47.7745 41.5565 65.0136 41.1876 88.8718 41.5565C114.554 41.959 134.382 28.7441 136 -3.49618e-06C129.322 11.4373 120.644 13.5168 105.964 13.5168C91.2841 13.5168 82.4587 13.8857 58.6004 13.5168C32.9182 13.1143 12.8843 25.9938 4 54Z" fill="#DF2224"/>
</g>
<path d="M63.824 20.848V32H62.368V26.944H56.688V32H55.232V20.848H56.688V25.744H62.368V20.848H63.824ZM70.1341 32.144C69.3128 32.144 68.5661 31.9573 67.8941 31.584C67.2328 31.2107 66.7101 30.6827 66.3261 30C65.9528 29.3067 65.7661 28.5067 65.7661 27.6C65.7661 26.704 65.9581 25.9147 66.3421 25.232C66.7368 24.5387 67.2701 24.0107 67.9421 23.648C68.6141 23.2747 69.3661 23.088 70.1981 23.088C71.0301 23.088 71.7821 23.2747 72.4541 23.648C73.1261 24.0107 73.6541 24.5333 74.0381 25.216C74.4328 25.8987 74.6301 26.6933 74.6301 27.6C74.6301 28.5067 74.4275 29.3067 74.0221 30C73.6275 30.6827 73.0888 31.2107 72.4061 31.584C71.7235 31.9573 70.9661 32.144 70.1341 32.144ZM70.1341 30.864C70.6568 30.864 71.1475 30.7413 71.6061 30.496C72.0648 30.2507 72.4328 29.8827 72.7101 29.392C72.9981 28.9013 73.1421 28.304 73.1421 27.6C73.1421 26.896 73.0035 26.2987 72.7261 25.808C72.4488 25.3173 72.0861 24.9547 71.6381 24.72C71.1901 24.4747 70.7048 24.352 70.1821 24.352C69.6488 24.352 69.1581 24.4747 68.7101 24.72C68.2728 24.9547 67.9208 25.3173 67.6541 25.808C67.3875 26.2987 67.2541 26.896 67.2541 27.6C67.2541 28.3147 67.3821 28.9173 67.6381 29.408C67.9048 29.8987 68.2568 30.2667 68.6941 30.512C69.1315 30.7467 69.6115 30.864 70.1341 30.864ZM84.3205 23.232V32H82.8645V30.704C82.5872 31.152 82.1978 31.504 81.6965 31.76C81.2058 32.0053 80.6618 32.128 80.0645 32.128C79.3818 32.128 78.7685 31.9893 78.2245 31.712C77.6805 31.424 77.2485 30.9973 76.9285 30.432C76.6192 29.8667 76.4645 29.1787 76.4645 28.368V23.232H77.9045V28.176C77.9045 29.04 78.1232 29.7067 78.5605 30.176C78.9978 30.6347 79.5952 30.864 80.3525 30.864C81.1312 30.864 81.7445 30.624 82.1925 30.144C82.6405 29.664 82.8645 28.9653 82.8645 28.048V23.232H84.3205ZM88.2349 24.656C88.4909 24.1547 88.8535 23.7653 89.3229 23.488C89.8029 23.2107 90.3842 23.072 91.0669 23.072V24.576H90.6829C89.0509 24.576 88.2349 25.4613 88.2349 27.232V32H86.7789V23.232H88.2349V24.656ZM95.8516 32.144C95.1796 32.144 94.577 32.032 94.0436 31.808C93.5103 31.5733 93.089 31.2533 92.7796 30.848C92.4703 30.432 92.2996 29.9573 92.2676 29.424H93.7716C93.8143 29.8613 94.017 30.2187 94.3796 30.496C94.753 30.7733 95.2383 30.912 95.8356 30.912C96.3903 30.912 96.8276 30.7893 97.1476 30.544C97.4676 30.2987 97.6276 29.9893 97.6276 29.616C97.6276 29.232 97.457 28.9493 97.1156 28.768C96.7743 28.576 96.2463 28.3893 95.5316 28.208C94.881 28.0373 94.3476 27.8667 93.9316 27.696C93.5263 27.5147 93.1743 27.2533 92.8756 26.912C92.5876 26.56 92.4436 26.1013 92.4436 25.536C92.4436 25.088 92.577 24.6773 92.8436 24.304C93.1103 23.9307 93.489 23.6373 93.9796 23.424C94.4703 23.2 95.0303 23.088 95.6596 23.088C96.6303 23.088 97.4143 23.3333 98.0116 23.824C98.609 24.3147 98.929 24.9867 98.9716 25.84H97.5156C97.4836 25.3813 97.297 25.0133 96.9556 24.736C96.625 24.4587 96.177 24.32 95.6116 24.32C95.089 24.32 94.673 24.432 94.3636 24.656C94.0543 24.88 93.8996 25.1733 93.8996 25.536C93.8996 25.824 93.9903 26.064 94.1716 26.256C94.3636 26.4373 94.5983 26.5867 94.8756 26.704C95.1636 26.8107 95.5583 26.9333 96.0596 27.072C96.689 27.2427 97.201 27.4133 97.5956 27.584C97.9903 27.744 98.3263 27.9893 98.6036 28.32C98.8916 28.6507 99.041 29.0827 99.0516 29.616C99.0516 30.096 98.9183 30.528 98.6516 30.912C98.385 31.296 98.0063 31.6 97.5156 31.824C97.0356 32.0373 96.481 32.144 95.8516 32.144Z" fill="white"/>
<defs>
<filter id="filter0_d_1_78" x="0" y="0" width="140" height="62" filterUnits="userSpaceOnUse" color-interpolation-filters="sRGB">
<feFlood flood-opacity="0" result="BackgroundImageFix"/>
<feColorMatrix in="SourceAlpha" type="matrix" values="0 0 0 0 0 0 0 0 0 0 0 0 0 0 0 0 0 0 127 0" result="hardAlpha"/>
<feOffset dy="4"/>
<feGaussianBlur stdDeviation="2"/>
<feComposite in2="hardAlpha" operator="out"/>
<feColorMatrix type="matrix" values="0 0 0 0 0 0 0 0 0 0 0 0 0 0 0 0 0 0 0.25 0"/>
<feBlend mode="normal" in2="BackgroundImageFix" result="effect1_dropShadow_1_78"/>
<feBlend mode="normal" in="SourceGraphic" in2="effect1_dropShadow_1_78" result="shape"/>
</filter>
</defs>
</svg>
