<svg width="140" height="62" viewBox="0 0 140 62" fill="none" xmlns="http://www.w3.org/2000/svg">
<g filter="url(#filter0_d_1_93)">
<path d="M4 54C10.678 42.5627 18.415 41.5565 33.0947 41.5565C47.7745 41.5565 65.0136 41.1876 88.8718 41.5565C114.554 41.959 134.382 28.7441 136 -3.49618e-06C129.322 11.4373 120.644 13.5168 105.964 13.5168C91.2841 13.5168 82.4587 13.8857 58.6004 13.5168C32.9182 13.1143 12.8843 25.9938 4 54Z" fill="#DF2224"/>
</g>
<path d="M42.768 32.112C42.032 32.112 41.3707 31.984 40.784 31.728C40.208 31.4613 39.7547 31.0987 39.424 30.64C39.0933 30.1707 38.9227 29.632 38.912 29.024H40.464C40.5173 29.5467 40.7307 29.9893 41.104 30.352C41.488 30.704 42.0427 30.88 42.768 30.88C43.4613 30.88 44.0053 30.7093 44.4 30.368C44.8053 30.016 45.008 29.568 45.008 29.024C45.008 28.5973 44.8907 28.2507 44.656 27.984C44.4213 27.7173 44.128 27.5147 43.776 27.376C43.424 27.2373 42.9493 27.088 42.352 26.928C41.616 26.736 41.024 26.544 40.576 26.352C40.1387 26.16 39.76 25.8613 39.44 25.456C39.1307 25.04 38.976 24.4853 38.976 23.792C38.976 23.184 39.1307 22.6453 39.44 22.176C39.7493 21.7067 40.1813 21.344 40.736 21.088C41.3013 20.832 41.9467 20.704 42.672 20.704C43.7173 20.704 44.5707 20.9653 45.232 21.488C45.904 22.0107 46.2827 22.704 46.368 23.568H44.768C44.7147 23.1413 44.4907 22.768 44.096 22.448C43.7013 22.1173 43.1787 21.952 42.528 21.952C41.92 21.952 41.424 22.112 41.04 22.432C40.656 22.7413 40.464 23.1787 40.464 23.744C40.464 24.1493 40.576 24.48 40.8 24.736C41.0347 24.992 41.3173 25.1893 41.648 25.328C41.9893 25.456 42.464 25.6053 43.072 25.776C43.808 25.9787 44.4 26.1813 44.848 26.384C45.296 26.576 45.68 26.88 46 27.296C46.32 27.7013 46.48 28.256 46.48 28.96C46.48 29.504 46.336 30.016 46.048 30.496C45.76 30.976 45.3333 31.3653 44.768 31.664C44.2027 31.9627 43.536 32.112 42.768 32.112ZM56.6226 27.28C56.6226 27.5573 56.6066 27.8507 56.5746 28.16H49.5666C49.62 29.024 49.9133 29.7013 50.4466 30.192C50.9906 30.672 51.6466 30.912 52.4146 30.912C53.044 30.912 53.5666 30.768 53.9826 30.48C54.4093 30.1813 54.708 29.7867 54.8786 29.296H56.4466C56.212 30.1387 55.7426 30.8267 55.0386 31.36C54.3346 31.8827 53.46 32.144 52.4146 32.144C51.5826 32.144 50.836 31.9573 50.1746 31.584C49.524 31.2107 49.012 30.6827 48.6386 30C48.2653 29.3067 48.0786 28.5067 48.0786 27.6C48.0786 26.6933 48.26 25.8987 48.6226 25.216C48.9853 24.5333 49.492 24.0107 50.1426 23.648C50.804 23.2747 51.5613 23.088 52.4146 23.088C53.2466 23.088 53.9826 23.2693 54.6226 23.632C55.2626 23.9947 55.7533 24.496 56.0946 25.136C56.4466 25.7653 56.6226 26.48 56.6226 27.28ZM55.1186 26.976C55.1186 26.4213 54.996 25.9467 54.7506 25.552C54.5053 25.1467 54.1693 24.8427 53.7426 24.64C53.3266 24.4267 52.8626 24.32 52.3506 24.32C51.6146 24.32 50.9853 24.5547 50.4626 25.024C49.9506 25.4933 49.6573 26.144 49.5826 26.976H55.1186ZM58.0005 27.6C58.0005 26.6933 58.1818 25.904 58.5445 25.232C58.9072 24.5493 59.4085 24.0213 60.0485 23.648C60.6992 23.2747 61.4405 23.088 62.2725 23.088C63.3498 23.088 64.2352 23.3493 64.9285 23.872C65.6325 24.3947 66.0965 25.12 66.3205 26.048H64.7525C64.6032 25.5147 64.3098 25.0933 63.8725 24.784C63.4458 24.4747 62.9125 24.32 62.2725 24.32C61.4405 24.32 60.7685 24.608 60.2565 25.184C59.7445 25.7493 59.4885 26.5547 59.4885 27.6C59.4885 28.656 59.7445 29.472 60.2565 30.048C60.7685 30.624 61.4405 30.912 62.2725 30.912C62.9125 30.912 63.4458 30.7627 63.8725 30.464C64.2992 30.1653 64.5925 29.7387 64.7525 29.184H66.3205C66.0858 30.08 65.6165 30.8 64.9125 31.344C64.2085 31.8773 63.3285 32.144 62.2725 32.144C61.4405 32.144 60.6992 31.9573 60.0485 31.584C59.4085 31.2107 58.9072 30.6827 58.5445 30C58.1818 29.3173 58.0005 28.5173 58.0005 27.6ZM72.0873 32.144C71.2659 32.144 70.5193 31.9573 69.8473 31.584C69.1859 31.2107 68.6633 30.6827 68.2793 30C67.9059 29.3067 67.7193 28.5067 67.7193 27.6C67.7193 26.704 67.9113 25.9147 68.2953 25.232C68.6899 24.5387 69.2233 24.0107 69.8953 23.648C70.5673 23.2747 71.3193 23.088 72.1513 23.088C72.9833 23.088 73.7353 23.2747 74.4073 23.648C75.0793 24.0107 75.6073 24.5333 75.9913 25.216C76.3859 25.8987 76.5833 26.6933 76.5833 27.6C76.5833 28.5067 76.3806 29.3067 75.9753 30C75.5806 30.6827 75.0419 31.2107 74.3593 31.584C73.6766 31.9573 72.9193 32.144 72.0873 32.144ZM72.0873 30.864C72.6099 30.864 73.1006 30.7413 73.5593 30.496C74.0179 30.2507 74.3859 29.8827 74.6633 29.392C74.9513 28.9013 75.0953 28.304 75.0953 27.6C75.0953 26.896 74.9566 26.2987 74.6793 25.808C74.4019 25.3173 74.0393 24.9547 73.5913 24.72C73.1433 24.4747 72.6579 24.352 72.1353 24.352C71.6019 24.352 71.1113 24.4747 70.6633 24.72C70.2259 24.9547 69.8739 25.3173 69.6073 25.808C69.3406 26.2987 69.2073 26.896 69.2073 27.6C69.2073 28.3147 69.3353 28.9173 69.5913 29.408C69.8579 29.8987 70.2099 30.2667 70.6473 30.512C71.0846 30.7467 71.5646 30.864 72.0873 30.864ZM82.7696 23.072C83.8363 23.072 84.7003 23.3973 85.3616 24.048C86.023 24.688 86.3536 25.616 86.3536 26.832V32H84.9136V27.04C84.9136 26.1653 84.695 25.4987 84.2576 25.04C83.8203 24.5707 83.223 24.336 82.4656 24.336C81.6976 24.336 81.0843 24.576 80.6256 25.056C80.1776 25.536 79.9536 26.2347 79.9536 27.152V32H78.4976V23.232H79.9536V24.48C80.2416 24.032 80.631 23.6853 81.1216 23.44C81.623 23.1947 82.1723 23.072 82.7696 23.072ZM88.188 27.584C88.188 26.688 88.3693 25.904 88.732 25.232C89.0947 24.5493 89.5907 24.0213 90.22 23.648C90.86 23.2747 91.5747 23.088 92.364 23.088C93.0467 23.088 93.6813 23.248 94.268 23.568C94.8547 23.8773 95.3027 24.288 95.612 24.8V20.16H97.084V32H95.612V30.352C95.324 30.8747 94.8973 31.3067 94.332 31.648C93.7667 31.9787 93.1053 32.144 92.348 32.144C91.5693 32.144 90.86 31.952 90.22 31.568C89.5907 31.184 89.0947 30.6453 88.732 29.952C88.3693 29.2587 88.188 28.4693 88.188 27.584ZM95.612 27.6C95.612 26.9387 95.4787 26.3627 95.212 25.872C94.9453 25.3813 94.5827 25.008 94.124 24.752C93.676 24.4853 93.18 24.352 92.636 24.352C92.092 24.352 91.596 24.48 91.148 24.736C90.7 24.992 90.3427 25.3653 90.076 25.856C89.8093 26.3467 89.676 26.9227 89.676 27.584C89.676 28.256 89.8093 28.8427 90.076 29.344C90.3427 29.8347 90.7 30.2133 91.148 30.48C91.596 30.736 92.092 30.864 92.636 30.864C93.18 30.864 93.676 30.736 94.124 30.48C94.5827 30.2133 94.9453 29.8347 95.212 29.344C95.4787 28.8427 95.612 28.2613 95.612 27.6ZM102.649 32.144C101.977 32.144 101.374 32.032 100.841 31.808C100.307 31.5733 99.8858 31.2533 99.5765 30.848C99.2672 30.432 99.0965 29.9573 99.0645 29.424H100.569C100.611 29.8613 100.814 30.2187 101.177 30.496C101.55 30.7733 102.035 30.912 102.633 30.912C103.187 30.912 103.625 30.7893 103.945 30.544C104.265 30.2987 104.425 29.9893 104.425 29.616C104.425 29.232 104.254 28.9493 103.913 28.768C103.571 28.576 103.043 28.3893 102.329 28.208C101.678 28.0373 101.145 27.8667 100.729 27.696C100.323 27.5147 99.9712 27.2533 99.6725 26.912C99.3845 26.56 99.2405 26.1013 99.2405 25.536C99.2405 25.088 99.3738 24.6773 99.6405 24.304C99.9072 23.9307 100.286 23.6373 100.777 23.424C101.267 23.2 101.827 23.088 102.457 23.088C103.427 23.088 104.211 23.3333 104.809 23.824C105.406 24.3147 105.726 24.9867 105.769 25.84H104.313C104.281 25.3813 104.094 25.0133 103.753 24.736C103.422 24.4587 102.974 24.32 102.409 24.32C101.886 24.32 101.47 24.432 101.161 24.656C100.851 24.88 100.697 25.1733 100.697 25.536C100.697 25.824 100.787 26.064 100.969 26.256C101.161 26.4373 101.395 26.5867 101.673 26.704C101.961 26.8107 102.355 26.9333 102.857 27.072C103.486 27.2427 103.998 27.4133 104.393 27.584C104.787 27.744 105.123 27.9893 105.401 28.32C105.689 28.6507 105.838 29.0827 105.849 29.616C105.849 30.096 105.715 30.528 105.449 30.912C105.182 31.296 104.803 31.6 104.313 31.824C103.833 32.0373 103.278 32.144 102.649 32.144Z" fill="white"/>
<defs>
<filter id="filter0_d_1_93" x="0" y="0" width="140" height="62" filterUnits="userSpaceOnUse" color-interpolation-filters="sRGB">
<feFlood flood-opacity="0" result="BackgroundImageFix"/>
<feColorMatrix in="SourceAlpha" type="matrix" values="0 0 0 0 0 0 0 0 0 0 0 0 0 0 0 0 0 0 127 0" result="hardAlpha"/>
<feOffset dy="4"/>
<feGaussianBlur stdDeviation="2"/>
<feComposite in2="hardAlpha" operator="out"/>
<feColorMatrix type="matrix" values="0 0 0 0 0 0 0 0 0 0 0 0 0 0 0 0 0 0 0.25 0"/>
<feBlend mode="normal" in2="BackgroundImageFix" result="effect1_dropShadow_1_93"/>
<feBlend mode="normal" in="SourceGraphic" in2="effect1_dropShadow_1_93" result="shape"/>
</filter>
</defs>
</svg>
