<svg width="140" height="62" viewBox="0 0 140 62" fill="none" xmlns="http://www.w3.org/2000/svg">
<g filter="url(#filter0_d_1_88)">
<path d="M4 54C10.678 42.5627 18.415 41.5565 33.0947 41.5565C47.7745 41.5565 65.0136 41.1876 88.8718 41.5565C114.554 41.959 134.382 28.7441 136 -3.49618e-06C129.322 11.4373 120.644 13.5168 105.964 13.5168C91.2841 13.5168 82.4587 13.8857 58.6004 13.5168C32.9182 13.1143 12.8843 25.9938 4 54Z" fill="#DF2224"/>
</g>
<g filter="url(#filter1_d_1_88)">
<path d="M54.544 20.928V32H53.088V23.744L49.408 32H48.384L44.688 23.728V32H43.232V20.928H44.8L48.896 30.08L52.992 20.928H54.544ZM57.7653 21.808C57.4879 21.808 57.2533 21.712 57.0613 21.52C56.8693 21.328 56.7733 21.0933 56.7733 20.816C56.7733 20.5387 56.8693 20.304 57.0613 20.112C57.2533 19.92 57.4879 19.824 57.7653 19.824C58.0319 19.824 58.2559 19.92 58.4373 20.112C58.6293 20.304 58.7253 20.5387 58.7253 20.816C58.7253 21.0933 58.6293 21.328 58.4373 21.52C58.2559 21.712 58.0319 21.808 57.7653 21.808ZM58.4693 23.232V32H57.0133V23.232H58.4693ZM65.2228 23.072C66.2894 23.072 67.1534 23.3973 67.8148 24.048C68.4761 24.688 68.8068 25.616 68.8068 26.832V32H67.3668V27.04C67.3668 26.1653 67.1481 25.4987 66.7108 25.04C66.2734 24.5707 65.6761 24.336 64.9188 24.336C64.1508 24.336 63.5374 24.576 63.0788 25.056C62.6308 25.536 62.4068 26.2347 62.4068 27.152V32H60.9508V23.232H62.4068V24.48C62.6948 24.032 63.0841 23.6853 63.5748 23.44C64.0761 23.1947 64.6254 23.072 65.2228 23.072ZM78.9611 23.232V32H77.5051V30.704C77.2278 31.152 76.8385 31.504 76.3371 31.76C75.8465 32.0053 75.3025 32.128 74.7051 32.128C74.0225 32.128 73.4091 31.9893 72.8651 31.712C72.3211 31.424 71.8891 30.9973 71.5691 30.432C71.2598 29.8667 71.1051 29.1787 71.1051 28.368V23.232H72.5451V28.176C72.5451 29.04 72.7638 29.7067 73.2011 30.176C73.6385 30.6347 74.2358 30.864 74.9931 30.864C75.7718 30.864 76.3851 30.624 76.8331 30.144C77.2811 29.664 77.5051 28.9653 77.5051 28.048V23.232H78.9611ZM83.1955 24.432V29.6C83.1955 30.0267 83.2862 30.3307 83.4675 30.512C83.6488 30.6827 83.9635 30.768 84.4115 30.768H85.4835V32H84.1715C83.3608 32 82.7528 31.8133 82.3475 31.44C81.9422 31.0667 81.7395 30.4533 81.7395 29.6V24.432H80.6035V23.232H81.7395V21.024H83.1955V23.232H85.4835V24.432H83.1955ZM95.2476 27.28C95.2476 27.5573 95.2316 27.8507 95.1996 28.16H88.1916C88.245 29.024 88.5383 29.7013 89.0716 30.192C89.6156 30.672 90.2716 30.912 91.0396 30.912C91.669 30.912 92.1916 30.768 92.6076 30.48C93.0343 30.1813 93.333 29.7867 93.5036 29.296H95.0716C94.837 30.1387 94.3676 30.8267 93.6636 31.36C92.9596 31.8827 92.085 32.144 91.0396 32.144C90.2076 32.144 89.461 31.9573 88.7996 31.584C88.149 31.2107 87.637 30.6827 87.2636 30C86.8903 29.3067 86.7036 28.5067 86.7036 27.6C86.7036 26.6933 86.885 25.8987 87.2476 25.216C87.6103 24.5333 88.117 24.0107 88.7676 23.648C89.429 23.2747 90.1863 23.088 91.0396 23.088C91.8716 23.088 92.6076 23.2693 93.2476 23.632C93.8876 23.9947 94.3783 24.496 94.7196 25.136C95.0716 25.7653 95.2476 26.48 95.2476 27.28ZM93.7436 26.976C93.7436 26.4213 93.621 25.9467 93.3756 25.552C93.1303 25.1467 92.7943 24.8427 92.3676 24.64C91.9516 24.4267 91.4876 24.32 90.9756 24.32C90.2396 24.32 89.6103 24.5547 89.0876 25.024C88.5756 25.4933 88.2823 26.144 88.2076 26.976H93.7436ZM100.274 32.144C99.6015 32.144 98.9988 32.032 98.4655 31.808C97.9322 31.5733 97.5108 31.2533 97.2015 30.848C96.8922 30.432 96.7215 29.9573 96.6895 29.424H98.1935C98.2362 29.8613 98.4388 30.2187 98.8015 30.496C99.1748 30.7733 99.6602 30.912 100.258 30.912C100.812 30.912 101.25 30.7893 101.57 30.544C101.89 30.2987 102.05 29.9893 102.05 29.616C102.05 29.232 101.879 28.9493 101.538 28.768C101.196 28.576 100.668 28.3893 99.9535 28.208C99.3028 28.0373 98.7695 27.8667 98.3535 27.696C97.9482 27.5147 97.5962 27.2533 97.2975 26.912C97.0095 26.56 96.8655 26.1013 96.8655 25.536C96.8655 25.088 96.9988 24.6773 97.2655 24.304C97.5322 23.9307 97.9108 23.6373 98.4015 23.424C98.8922 23.2 99.4522 23.088 100.082 23.088C101.052 23.088 101.836 23.3333 102.434 23.824C103.031 24.3147 103.351 24.9867 103.394 25.84H101.938C101.906 25.3813 101.719 25.0133 101.378 24.736C101.047 24.4587 100.599 24.32 100.034 24.32C99.5108 24.32 99.0948 24.432 98.7855 24.656C98.4762 24.88 98.3215 25.1733 98.3215 25.536C98.3215 25.824 98.4122 26.064 98.5935 26.256C98.7855 26.4373 99.0202 26.5867 99.2975 26.704C99.5855 26.8107 99.9802 26.9333 100.482 27.072C101.111 27.2427 101.623 27.4133 102.018 27.584C102.412 27.744 102.748 27.9893 103.026 28.32C103.314 28.6507 103.463 29.0827 103.474 29.616C103.474 30.096 103.34 30.528 103.074 30.912C102.807 31.296 102.428 31.6 101.938 31.824C101.458 32.0373 100.903 32.144 100.274 32.144Z" fill="white"/>
</g>
<defs>
<filter id="filter0_d_1_88" x="0" y="0" width="140" height="62" filterUnits="userSpaceOnUse" color-interpolation-filters="sRGB">
<feFlood flood-opacity="0" result="BackgroundImageFix"/>
<feColorMatrix in="SourceAlpha" type="matrix" values="0 0 0 0 0 0 0 0 0 0 0 0 0 0 0 0 0 0 127 0" result="hardAlpha"/>
<feOffset dy="4"/>
<feGaussianBlur stdDeviation="2"/>
<feComposite in2="hardAlpha" operator="out"/>
<feColorMatrix type="matrix" values="0 0 0 0 0 0 0 0 0 0 0 0 0 0 0 0 0 0 0.25 0"/>
<feBlend mode="normal" in2="BackgroundImageFix" result="effect1_dropShadow_1_88"/>
<feBlend mode="normal" in="SourceGraphic" in2="effect1_dropShadow_1_88" result="shape"/>
</filter>
<filter id="filter1_d_1_88" x="39.232" y="19.824" width="68.2415" height="20.32" filterUnits="userSpaceOnUse" color-interpolation-filters="sRGB">
<feFlood flood-opacity="0" result="BackgroundImageFix"/>
<feColorMatrix in="SourceAlpha" type="matrix" values="0 0 0 0 0 0 0 0 0 0 0 0 0 0 0 0 0 0 127 0" result="hardAlpha"/>
<feOffset dy="4"/>
<feGaussianBlur stdDeviation="2"/>
<feComposite in2="hardAlpha" operator="out"/>
<feColorMatrix type="matrix" values="0 0 0 0 0 0 0 0 0 0 0 0 0 0 0 0 0 0 0.25 0"/>
<feBlend mode="normal" in2="BackgroundImageFix" result="effect1_dropShadow_1_88"/>
<feBlend mode="normal" in="SourceGraphic" in2="effect1_dropShadow_1_88" result="shape"/>
</filter>
</defs>
</svg>
