<svg width="140" height="62" viewBox="0 0 140 62" fill="none" xmlns="http://www.w3.org/2000/svg">
<g filter="url(#filter0_d_1_93)">
<path d="M4 54C10.678 42.5627 18.415 41.5565 33.0947 41.5565C47.7745 41.5565 65.0136 41.1876 88.8718 41.5565C114.554 41.959 134.382 28.7441 136 -3.49618e-06C129.322 11.4373 120.644 13.5168 105.964 13.5168C91.2841 13.5168 82.4587 13.8857 58.6004 13.5168C32.9182 13.1143 12.8843 25.9938 4 54Z" fill="#DF2224"/>
</g>
<path d="M56.544 20.928V32H55.088V23.744L51.408 32H50.384L46.688 23.728V32H45.232V20.928H46.8L50.896 30.08L54.992 20.928H56.544ZM59.7653 21.808C59.4879 21.808 59.2533 21.712 59.0613 21.52C58.8693 21.328 58.7733 21.0933 58.7733 20.816C58.7733 20.5387 58.8693 20.304 59.0613 20.112C59.2533 19.92 59.4879 19.824 59.7653 19.824C60.0319 19.824 60.2559 19.92 60.4373 20.112C60.6293 20.304 60.7253 20.5387 60.7253 20.816C60.7253 21.0933 60.6293 21.328 60.4373 21.52C60.2559 21.712 60.0319 21.808 59.7653 21.808ZM60.4693 23.232V32H59.0133V23.232H60.4693ZM67.2228 23.072C68.2894 23.072 69.1534 23.3973 69.8148 24.048C70.4761 24.688 70.8068 25.616 70.8068 26.832V32H69.3668V27.04C69.3668 26.1653 69.1481 25.4987 68.7108 25.04C68.2734 24.5707 67.6761 24.336 66.9188 24.336C66.1508 24.336 65.5374 24.576 65.0788 25.056C64.6308 25.536 64.4068 26.2347 64.4068 27.152V32H62.9508V23.232H64.4068V24.48C64.6948 24.032 65.0841 23.6853 65.5748 23.44C66.0761 23.1947 66.6254 23.072 67.2228 23.072ZM80.9611 23.232V32H79.5051V30.704C79.2278 31.152 78.8385 31.504 78.3371 31.76C77.8465 32.0053 77.3025 32.128 76.7051 32.128C76.0225 32.128 75.4091 31.9893 74.8651 31.712C74.3211 31.424 73.8891 30.9973 73.5691 30.432C73.2598 29.8667 73.1051 29.1787 73.1051 28.368V23.232H74.5451V28.176C74.5451 29.04 74.7638 29.7067 75.2011 30.176C75.6385 30.6347 76.2358 30.864 76.9931 30.864C77.7718 30.864 78.3851 30.624 78.8331 30.144C79.2811 29.664 79.5051 28.9653 79.5051 28.048V23.232H80.9611ZM85.1955 24.432V29.6C85.1955 30.0267 85.2862 30.3307 85.4675 30.512C85.6488 30.6827 85.9635 30.768 86.4115 30.768H87.4835V32H86.1715C85.3608 32 84.7528 31.8133 84.3475 31.44C83.9422 31.0667 83.7395 30.4533 83.7395 29.6V24.432H82.6035V23.232H83.7395V21.024H85.1955V23.232H87.4835V24.432H85.1955ZM97.2476 27.28C97.2476 27.5573 97.2316 27.8507 97.1996 28.16H90.1916C90.245 29.024 90.5383 29.7013 91.0716 30.192C91.6156 30.672 92.2716 30.912 93.0396 30.912C93.669 30.912 94.1916 30.768 94.6076 30.48C95.0343 30.1813 95.333 29.7867 95.5036 29.296H97.0716C96.837 30.1387 96.3676 30.8267 95.6636 31.36C94.9596 31.8827 94.085 32.144 93.0396 32.144C92.2076 32.144 91.461 31.9573 90.7996 31.584C90.149 31.2107 89.637 30.6827 89.2636 30C88.8903 29.3067 88.7036 28.5067 88.7036 27.6C88.7036 26.6933 88.885 25.8987 89.2476 25.216C89.6103 24.5333 90.117 24.0107 90.7676 23.648C91.429 23.2747 92.1863 23.088 93.0396 23.088C93.8716 23.088 94.6076 23.2693 95.2476 23.632C95.8876 23.9947 96.3783 24.496 96.7196 25.136C97.0716 25.7653 97.2476 26.48 97.2476 27.28ZM95.7436 26.976C95.7436 26.4213 95.621 25.9467 95.3756 25.552C95.1303 25.1467 94.7943 24.8427 94.3676 24.64C93.9516 24.4267 93.4876 24.32 92.9756 24.32C92.2396 24.32 91.6103 24.5547 91.0876 25.024C90.5756 25.4933 90.2823 26.144 90.2076 26.976H95.7436ZM102.274 32.144C101.602 32.144 100.999 32.032 100.466 31.808C99.9322 31.5733 99.5108 31.2533 99.2015 30.848C98.8922 30.432 98.7215 29.9573 98.6895 29.424H100.194C100.236 29.8613 100.439 30.2187 100.802 30.496C101.175 30.7733 101.66 30.912 102.258 30.912C102.812 30.912 103.25 30.7893 103.57 30.544C103.89 30.2987 104.05 29.9893 104.05 29.616C104.05 29.232 103.879 28.9493 103.538 28.768C103.196 28.576 102.668 28.3893 101.954 28.208C101.303 28.0373 100.77 27.8667 100.354 27.696C99.9482 27.5147 99.5962 27.2533 99.2975 26.912C99.0095 26.56 98.8655 26.1013 98.8655 25.536C98.8655 25.088 98.9988 24.6773 99.2655 24.304C99.5322 23.9307 99.9108 23.6373 100.402 23.424C100.892 23.2 101.452 23.088 102.082 23.088C103.052 23.088 103.836 23.3333 104.434 23.824C105.031 24.3147 105.351 24.9867 105.394 25.84H103.938C103.906 25.3813 103.719 25.0133 103.378 24.736C103.047 24.4587 102.599 24.32 102.034 24.32C101.511 24.32 101.095 24.432 100.786 24.656C100.476 24.88 100.322 25.1733 100.322 25.536C100.322 25.824 100.412 26.064 100.594 26.256C100.786 26.4373 101.02 26.5867 101.298 26.704C101.586 26.8107 101.98 26.9333 102.482 27.072C103.111 27.2427 103.623 27.4133 104.018 27.584C104.412 27.744 104.748 27.9893 105.026 28.32C105.314 28.6507 105.463 29.0827 105.474 29.616C105.474 30.096 105.34 30.528 105.074 30.912C104.807 31.296 104.428 31.6 103.938 31.824C103.458 32.0373 102.903 32.144 102.274 32.144Z" fill="white"/>
<defs>
<filter id="filter0_d_1_93" x="0" y="0" width="140" height="62" filterUnits="userSpaceOnUse" color-interpolation-filters="sRGB">
<feFlood flood-opacity="0" result="BackgroundImageFix"/>
<feColorMatrix in="SourceAlpha" type="matrix" values="0 0 0 0 0 0 0 0 0 0 0 0 0 0 0 0 0 0 127 0" result="hardAlpha"/>
<feOffset dy="4"/>
<feGaussianBlur stdDeviation="2"/>
<feComposite in2="hardAlpha" operator="out"/>
<feColorMatrix type="matrix" values="0 0 0 0 0 0 0 0 0 0 0 0 0 0 0 0 0 0 0.25 0"/>
<feBlend mode="normal" in2="BackgroundImageFix" result="effect1_dropShadow_1_93"/>
<feBlend mode="normal" in="SourceGraphic" in2="effect1_dropShadow_1_93" result="shape"/>
</filter>
</defs>
</svg>
