<svg width="140" height="62" viewBox="0 0 140 62" fill="none" xmlns="http://www.w3.org/2000/svg">
<g filter="url(#filter0_d_1_83)">
<g filter="url(#filter1_d_1_83)">
<path d="M4 54C10.678 42.5627 18.415 41.5565 33.0947 41.5565C47.7745 41.5565 65.0136 41.1876 88.8718 41.5565C114.554 41.959 134.382 28.7441 136 -3.49618e-06C129.322 11.4373 120.644 13.5168 105.964 13.5168C91.2841 13.5168 82.4587 13.8857 58.6004 13.5168C32.9182 13.1143 12.8843 25.9938 4 54Z" fill="#DF2224"/>
</g>
<path d="M60.824 20.848V32H59.368V26.944H53.688V32H52.232V20.848H53.688V25.744H59.368V20.848H60.824ZM67.1341 32.144C66.3128 32.144 65.5661 31.9573 64.8941 31.584C64.2328 31.2107 63.7101 30.6827 63.3261 30C62.9528 29.3067 62.7661 28.5067 62.7661 27.6C62.7661 26.704 62.9581 25.9147 63.3421 25.232C63.7368 24.5387 64.2701 24.0107 64.9421 23.648C65.6141 23.2747 66.3661 23.088 67.1981 23.088C68.0301 23.088 68.7821 23.2747 69.4541 23.648C70.1261 24.0107 70.6541 24.5333 71.0381 25.216C71.4328 25.8987 71.6301 26.6933 71.6301 27.6C71.6301 28.5067 71.4275 29.3067 71.0221 30C70.6275 30.6827 70.0888 31.2107 69.4061 31.584C68.7235 31.9573 67.9661 32.144 67.1341 32.144ZM67.1341 30.864C67.6568 30.864 68.1475 30.7413 68.6061 30.496C69.0648 30.2507 69.4328 29.8827 69.7101 29.392C69.9981 28.9013 70.1421 28.304 70.1421 27.6C70.1421 26.896 70.0035 26.2987 69.7261 25.808C69.4488 25.3173 69.0861 24.9547 68.6381 24.72C68.1901 24.4747 67.7048 24.352 67.1821 24.352C66.6488 24.352 66.1581 24.4747 65.7101 24.72C65.2728 24.9547 64.9208 25.3173 64.6541 25.808C64.3875 26.2987 64.2541 26.896 64.2541 27.6C64.2541 28.3147 64.3821 28.9173 64.6381 29.408C64.9048 29.8987 65.2568 30.2667 65.6941 30.512C66.1315 30.7467 66.6115 30.864 67.1341 30.864ZM81.3205 23.232V32H79.8645V30.704C79.5872 31.152 79.1978 31.504 78.6965 31.76C78.2058 32.0053 77.6618 32.128 77.0645 32.128C76.3818 32.128 75.7685 31.9893 75.2245 31.712C74.6805 31.424 74.2485 30.9973 73.9285 30.432C73.6192 29.8667 73.4645 29.1787 73.4645 28.368V23.232H74.9045V28.176C74.9045 29.04 75.1232 29.7067 75.5605 30.176C75.9978 30.6347 76.5952 30.864 77.3525 30.864C78.1312 30.864 78.7445 30.624 79.1925 30.144C79.6405 29.664 79.8645 28.9653 79.8645 28.048V23.232H81.3205ZM85.2349 24.656C85.4909 24.1547 85.8535 23.7653 86.3229 23.488C86.8029 23.2107 87.3842 23.072 88.0669 23.072V24.576H87.6829C86.0509 24.576 85.2349 25.4613 85.2349 27.232V32H83.7789V23.232H85.2349V24.656ZM92.8516 32.144C92.1796 32.144 91.577 32.032 91.0436 31.808C90.5103 31.5733 90.089 31.2533 89.7796 30.848C89.4703 30.432 89.2996 29.9573 89.2676 29.424H90.7716C90.8143 29.8613 91.017 30.2187 91.3796 30.496C91.753 30.7733 92.2383 30.912 92.8356 30.912C93.3903 30.912 93.8276 30.7893 94.1476 30.544C94.4676 30.2987 94.6276 29.9893 94.6276 29.616C94.6276 29.232 94.457 28.9493 94.1156 28.768C93.7743 28.576 93.2463 28.3893 92.5316 28.208C91.881 28.0373 91.3476 27.8667 90.9316 27.696C90.5263 27.5147 90.1743 27.2533 89.8756 26.912C89.5876 26.56 89.4436 26.1013 89.4436 25.536C89.4436 25.088 89.577 24.6773 89.8436 24.304C90.1103 23.9307 90.489 23.6373 90.9796 23.424C91.4703 23.2 92.0303 23.088 92.6596 23.088C93.6303 23.088 94.4143 23.3333 95.0116 23.824C95.609 24.3147 95.929 24.9867 95.9716 25.84H94.5156C94.4836 25.3813 94.297 25.0133 93.9556 24.736C93.625 24.4587 93.177 24.32 92.6116 24.32C92.089 24.32 91.673 24.432 91.3636 24.656C91.0543 24.88 90.8996 25.1733 90.8996 25.536C90.8996 25.824 90.9903 26.064 91.1716 26.256C91.3636 26.4373 91.5983 26.5867 91.8756 26.704C92.1636 26.8107 92.5583 26.9333 93.0596 27.072C93.689 27.2427 94.201 27.4133 94.5956 27.584C94.9903 27.744 95.3263 27.9893 95.6036 28.32C95.8916 28.6507 96.041 29.0827 96.0516 29.616C96.0516 30.096 95.9183 30.528 95.6516 30.912C95.385 31.296 95.0063 31.6 94.5156 31.824C94.0356 32.0373 93.481 32.144 92.8516 32.144Z" fill="white"/>
</g>
<defs>
<filter id="filter0_d_1_83" x="0" y="0" width="140" height="62" filterUnits="userSpaceOnUse" color-interpolation-filters="sRGB">
<feFlood flood-opacity="0" result="BackgroundImageFix"/>
<feColorMatrix in="SourceAlpha" type="matrix" values="0 0 0 0 0 0 0 0 0 0 0 0 0 0 0 0 0 0 127 0" result="hardAlpha"/>
<feOffset dy="4"/>
<feGaussianBlur stdDeviation="2"/>
<feComposite in2="hardAlpha" operator="out"/>
<feColorMatrix type="matrix" values="0 0 0 0 0 0 0 0 0 0 0 0 0 0 0 0 0 0 0.25 0"/>
<feBlend mode="normal" in2="BackgroundImageFix" result="effect1_dropShadow_1_83"/>
<feBlend mode="normal" in="SourceGraphic" in2="effect1_dropShadow_1_83" result="shape"/>
</filter>
<filter id="filter1_d_1_83" x="0" y="0" width="140" height="62" filterUnits="userSpaceOnUse" color-interpolation-filters="sRGB">
<feFlood flood-opacity="0" result="BackgroundImageFix"/>
<feColorMatrix in="SourceAlpha" type="matrix" values="0 0 0 0 0 0 0 0 0 0 0 0 0 0 0 0 0 0 127 0" result="hardAlpha"/>
<feOffset dy="4"/>
<feGaussianBlur stdDeviation="2"/>
<feComposite in2="hardAlpha" operator="out"/>
<feColorMatrix type="matrix" values="0 0 0 0 0 0 0 0 0 0 0 0 0 0 0 0 0 0 0.25 0"/>
<feBlend mode="normal" in2="BackgroundImageFix" result="effect1_dropShadow_1_83"/>
<feBlend mode="normal" in="SourceGraphic" in2="effect1_dropShadow_1_83" result="shape"/>
</filter>
</defs>
</svg>
