<svg width="140" height="62" viewBox="0 0 140 62" fill="none" xmlns="http://www.w3.org/2000/svg">
<g filter="url(#filter0_d_1_78)">
<path d="M4 54C10.678 42.5627 18.415 41.5565 33.0947 41.5565C47.7745 41.5565 65.0136 41.1876 88.8718 41.5565C114.554 41.959 134.382 28.7441 136 -3.49618e-06C129.322 11.4373 120.644 13.5168 105.964 13.5168C91.2841 13.5168 82.4587 13.8857 58.6004 13.5168C32.9182 13.1143 12.8843 25.9938 4 54Z" fill="#DF2224"/>
</g>
<path d="M58.704 20.848C59.92 20.848 60.9707 21.0773 61.856 21.536C62.752 21.984 63.4347 22.6293 63.904 23.472C64.384 24.3147 64.624 25.3067 64.624 26.448C64.624 27.5893 64.384 28.5813 63.904 29.424C63.4347 30.256 62.752 30.896 61.856 31.344C60.9707 31.7813 59.92 32 58.704 32H55.232V20.848H58.704ZM58.704 30.8C60.144 30.8 61.2427 30.4213 62 29.664C62.7573 28.896 63.136 27.824 63.136 26.448C63.136 25.0613 62.752 23.9787 61.984 23.2C61.2267 22.4213 60.1333 22.032 58.704 22.032H56.688V30.8H58.704ZM66.0005 27.584C66.0005 26.688 66.1818 25.904 66.5445 25.232C66.9072 24.5493 67.4032 24.0213 68.0325 23.648C68.6725 23.2747 69.3818 23.088 70.1605 23.088C70.9285 23.088 71.5952 23.2533 72.1605 23.584C72.7258 23.9147 73.1472 24.3307 73.4245 24.832V23.232H74.8965V32H73.4245V30.368C73.1365 30.88 72.7045 31.3067 72.1285 31.648C71.5632 31.9787 70.9018 32.144 70.1445 32.144C69.3658 32.144 68.6618 31.952 68.0325 31.568C67.4032 31.184 66.9072 30.6453 66.5445 29.952C66.1818 29.2587 66.0005 28.4693 66.0005 27.584ZM73.4245 27.6C73.4245 26.9387 73.2912 26.3627 73.0245 25.872C72.7578 25.3813 72.3952 25.008 71.9365 24.752C71.4885 24.4853 70.9925 24.352 70.4485 24.352C69.9045 24.352 69.4085 24.48 68.9605 24.736C68.5125 24.992 68.1552 25.3653 67.8885 25.856C67.6218 26.3467 67.4885 26.9227 67.4885 27.584C67.4885 28.256 67.6218 28.8427 67.8885 29.344C68.1552 29.8347 68.5125 30.2133 68.9605 30.48C69.4085 30.736 69.9045 30.864 70.4485 30.864C70.9925 30.864 71.4885 30.736 71.9365 30.48C72.3952 30.2133 72.7578 29.8347 73.0245 29.344C73.2912 28.8427 73.4245 28.2613 73.4245 27.6ZM84.909 23.232L79.629 36.128H78.125L79.853 31.904L76.317 23.232H77.933L80.685 30.336L83.405 23.232H84.909ZM89.4766 32.144C88.8046 32.144 88.202 32.032 87.6686 31.808C87.1353 31.5733 86.714 31.2533 86.4046 30.848C86.0953 30.432 85.9246 29.9573 85.8926 29.424H87.3966C87.4393 29.8613 87.642 30.2187 88.0046 30.496C88.378 30.7733 88.8633 30.912 89.4606 30.912C90.0153 30.912 90.4526 30.7893 90.7726 30.544C91.0926 30.2987 91.2526 29.9893 91.2526 29.616C91.2526 29.232 91.082 28.9493 90.7406 28.768C90.3993 28.576 89.8713 28.3893 89.1566 28.208C88.506 28.0373 87.9726 27.8667 87.5566 27.696C87.1513 27.5147 86.7993 27.2533 86.5006 26.912C86.2126 26.56 86.0686 26.1013 86.0686 25.536C86.0686 25.088 86.202 24.6773 86.4686 24.304C86.7353 23.9307 87.114 23.6373 87.6046 23.424C88.0953 23.2 88.6553 23.088 89.2846 23.088C90.2553 23.088 91.0393 23.3333 91.6366 23.824C92.234 24.3147 92.554 24.9867 92.5966 25.84H91.1406C91.1086 25.3813 90.922 25.0133 90.5806 24.736C90.25 24.4587 89.802 24.32 89.2366 24.32C88.714 24.32 88.298 24.432 87.9886 24.656C87.6793 24.88 87.5246 25.1733 87.5246 25.536C87.5246 25.824 87.6153 26.064 87.7966 26.256C87.9886 26.4373 88.2233 26.5867 88.5006 26.704C88.7886 26.8107 89.1833 26.9333 89.6846 27.072C90.314 27.2427 90.826 27.4133 91.2206 27.584C91.6153 27.744 91.9513 27.9893 92.2286 28.32C92.5166 28.6507 92.666 29.0827 92.6766 29.616C92.6766 30.096 92.5433 30.528 92.2766 30.912C92.01 31.296 91.6313 31.6 91.1406 31.824C90.6606 32.0373 90.106 32.144 89.4766 32.144Z" fill="white"/>
<defs>
<filter id="filter0_d_1_78" x="0" y="0" width="140" height="62" filterUnits="userSpaceOnUse" color-interpolation-filters="sRGB">
<feFlood flood-opacity="0" result="BackgroundImageFix"/>
<feColorMatrix in="SourceAlpha" type="matrix" values="0 0 0 0 0 0 0 0 0 0 0 0 0 0 0 0 0 0 127 0" result="hardAlpha"/>
<feOffset dy="4"/>
<feGaussianBlur stdDeviation="2"/>
<feComposite in2="hardAlpha" operator="out"/>
<feColorMatrix type="matrix" values="0 0 0 0 0 0 0 0 0 0 0 0 0 0 0 0 0 0 0.25 0"/>
<feBlend mode="normal" in2="BackgroundImageFix" result="effect1_dropShadow_1_78"/>
<feBlend mode="normal" in="SourceGraphic" in2="effect1_dropShadow_1_78" result="shape"/>
</filter>
</defs>
</svg>
